<mxfile host="Electron" modified="2021-06-14T08:42:48.087Z" agent="5.0 (X11; Linux x86_64) AppleWebKit/537.36 (KHTML, like Gecko) draw.io/14.6.13 Chrome/89.0.4389.128 Electron/12.0.7 Safari/537.36" etag="cwcoZhIix3Kqwq_kliBu" compressed="false" version="14.6.13" type="device">
  <diagram id="RKKCbuWFXUTvwM_k07z_" name="Page-1">
    <mxGraphModel dx="1296" dy="516" grid="1" gridSize="10" guides="1" tooltips="1" connect="1" arrows="1" fold="1" page="1" pageScale="1" pageWidth="2336" pageHeight="1654" math="0" shadow="0">
      <root>
        <mxCell id="0" />
        <mxCell id="1" parent="0" />
        <mxCell id="ddxZkmj4-rbbM2WaYGvC-1" value="Navbar" style="rounded=0;whiteSpace=wrap;html=1;" vertex="1" parent="1">
          <mxGeometry x="150" y="100" width="240" height="60" as="geometry" />
        </mxCell>
        <mxCell id="ddxZkmj4-rbbM2WaYGvC-2" value="Profile Headings" style="rounded=0;whiteSpace=wrap;html=1;" vertex="1" parent="1">
          <mxGeometry x="150" y="160" width="120" height="60" as="geometry" />
        </mxCell>
        <mxCell id="ddxZkmj4-rbbM2WaYGvC-3" value="Informations" style="rounded=0;whiteSpace=wrap;html=1;" vertex="1" parent="1">
          <mxGeometry x="150" y="220" width="120" height="60" as="geometry" />
        </mxCell>
        <mxCell id="ddxZkmj4-rbbM2WaYGvC-4" value="Sidebar cards" style="rounded=0;whiteSpace=wrap;html=1;verticalAlign=top;" vertex="1" parent="1">
          <mxGeometry x="270" y="160" width="120" height="420" as="geometry" />
        </mxCell>
        <mxCell id="ddxZkmj4-rbbM2WaYGvC-5" value="Activities" style="rounded=0;whiteSpace=wrap;html=1;" vertex="1" parent="1">
          <mxGeometry x="150" y="280" width="120" height="60" as="geometry" />
        </mxCell>
        <mxCell id="ddxZkmj4-rbbM2WaYGvC-6" value="Experiences" style="rounded=0;whiteSpace=wrap;html=1;" vertex="1" parent="1">
          <mxGeometry x="150" y="340" width="120" height="60" as="geometry" />
        </mxCell>
        <mxCell id="ddxZkmj4-rbbM2WaYGvC-7" value="Formation" style="rounded=0;whiteSpace=wrap;html=1;" vertex="1" parent="1">
          <mxGeometry x="150" y="400" width="120" height="60" as="geometry" />
        </mxCell>
        <mxCell id="ddxZkmj4-rbbM2WaYGvC-8" value="Skills" style="rounded=0;whiteSpace=wrap;html=1;" vertex="1" parent="1">
          <mxGeometry x="150" y="460" width="120" height="60" as="geometry" />
        </mxCell>
        <mxCell id="ddxZkmj4-rbbM2WaYGvC-9" value="references" style="rounded=0;whiteSpace=wrap;html=1;" vertex="1" parent="1">
          <mxGeometry x="150" y="520" width="120" height="60" as="geometry" />
        </mxCell>
        <mxCell id="ddxZkmj4-rbbM2WaYGvC-10" value="Profile cards" style="rounded=0;whiteSpace=wrap;html=1;" vertex="1" parent="1">
          <mxGeometry x="280" y="190" width="100" height="60" as="geometry" />
        </mxCell>
        <mxCell id="ddxZkmj4-rbbM2WaYGvC-11" value="..." style="rounded=0;whiteSpace=wrap;html=1;" vertex="1" parent="1">
          <mxGeometry x="280" y="260" width="100" height="60" as="geometry" />
        </mxCell>
        <mxCell id="ddxZkmj4-rbbM2WaYGvC-17" style="edgeStyle=orthogonalEdgeStyle;rounded=0;orthogonalLoop=1;jettySize=auto;html=1;exitX=0.5;exitY=1;exitDx=0;exitDy=0;" edge="1" parent="1" source="ddxZkmj4-rbbM2WaYGvC-12" target="ddxZkmj4-rbbM2WaYGvC-16">
          <mxGeometry relative="1" as="geometry" />
        </mxCell>
        <mxCell id="ddxZkmj4-rbbM2WaYGvC-12" value="somethingSection" style="rounded=0;whiteSpace=wrap;html=1;fillColor=#dae8fc;strokeColor=#6c8ebf;" vertex="1" parent="1">
          <mxGeometry x="580" y="70" width="120" height="60" as="geometry" />
        </mxCell>
        <mxCell id="ddxZkmj4-rbbM2WaYGvC-16" value="somethingElement" style="rounded=0;whiteSpace=wrap;html=1;fillColor=#dae8fc;strokeColor=#6c8ebf;" vertex="1" parent="1">
          <mxGeometry x="580" y="180" width="120" height="60" as="geometry" />
        </mxCell>
        <mxCell id="ddxZkmj4-rbbM2WaYGvC-21" value="2" style="rounded=0;whiteSpace=wrap;html=1;" vertex="1" parent="1">
          <mxGeometry x="100" y="475" width="50" height="30" as="geometry" />
        </mxCell>
        <mxCell id="ddxZkmj4-rbbM2WaYGvC-22" value="3" style="rounded=0;whiteSpace=wrap;html=1;" vertex="1" parent="1">
          <mxGeometry x="390" y="210" width="50" height="30" as="geometry" />
        </mxCell>
        <mxCell id="ddxZkmj4-rbbM2WaYGvC-23" value="2" style="rounded=0;whiteSpace=wrap;html=1;" vertex="1" parent="1">
          <mxGeometry x="100" y="530" width="50" height="30" as="geometry" />
        </mxCell>
        <mxCell id="ddxZkmj4-rbbM2WaYGvC-24" value="1" style="rounded=0;whiteSpace=wrap;html=1;" vertex="1" parent="1">
          <mxGeometry x="100" y="355" width="50" height="30" as="geometry" />
        </mxCell>
        <mxCell id="ddxZkmj4-rbbM2WaYGvC-25" value="1" style="rounded=0;whiteSpace=wrap;html=1;" vertex="1" parent="1">
          <mxGeometry x="100" y="415" width="50" height="30" as="geometry" />
        </mxCell>
        <mxCell id="ddxZkmj4-rbbM2WaYGvC-30" value="3" style="rounded=0;whiteSpace=wrap;html=1;" vertex="1" parent="1">
          <mxGeometry x="100" y="115" width="50" height="30" as="geometry" />
        </mxCell>
        <mxCell id="ddxZkmj4-rbbM2WaYGvC-31" value="3" style="rounded=0;whiteSpace=wrap;html=1;" vertex="1" parent="1">
          <mxGeometry x="100" y="175" width="50" height="30" as="geometry" />
        </mxCell>
        <mxCell id="ddxZkmj4-rbbM2WaYGvC-32" value="1" style="rounded=0;whiteSpace=wrap;html=1;" vertex="1" parent="1">
          <mxGeometry x="100" y="235" width="50" height="30" as="geometry" />
        </mxCell>
        <mxCell id="ddxZkmj4-rbbM2WaYGvC-33" value="2" style="rounded=0;whiteSpace=wrap;html=1;" vertex="1" parent="1">
          <mxGeometry x="100" y="295" width="50" height="30" as="geometry" />
        </mxCell>
        <mxCell id="ddxZkmj4-rbbM2WaYGvC-34" value="9 for each" style="rounded=0;whiteSpace=wrap;html=1;" vertex="1" parent="1">
          <mxGeometry x="570" y="310" width="50" height="30" as="geometry" />
        </mxCell>
        <mxCell id="ddxZkmj4-rbbM2WaYGvC-35" value="" style="rounded=0;whiteSpace=wrap;html=1;fillColor=#f8cecc;strokeColor=#b85450;" vertex="1" parent="1">
          <mxGeometry x="440" y="210" width="40" height="30" as="geometry" />
        </mxCell>
        <mxCell id="ddxZkmj4-rbbM2WaYGvC-36" value="" style="rounded=0;whiteSpace=wrap;html=1;fillColor=#ffe6cc;strokeColor=#d79b00;" vertex="1" parent="1">
          <mxGeometry x="60" y="115" width="40" height="30" as="geometry" />
        </mxCell>
        <mxCell id="ddxZkmj4-rbbM2WaYGvC-37" value="" style="rounded=0;whiteSpace=wrap;html=1;fillColor=#f8cecc;strokeColor=#b85450;" vertex="1" parent="1">
          <mxGeometry x="60" y="175" width="40" height="30" as="geometry" />
        </mxCell>
        <mxCell id="ddxZkmj4-rbbM2WaYGvC-38" value="" style="rounded=0;whiteSpace=wrap;html=1;fillColor=#ffe6cc;strokeColor=#d79b00;" vertex="1" parent="1">
          <mxGeometry x="60" y="235" width="40" height="30" as="geometry" />
        </mxCell>
        <mxCell id="ddxZkmj4-rbbM2WaYGvC-39" value="" style="rounded=0;whiteSpace=wrap;html=1;fillColor=#ffe6cc;strokeColor=#d79b00;" vertex="1" parent="1">
          <mxGeometry x="60" y="295" width="40" height="30" as="geometry" />
        </mxCell>
        <mxCell id="ddxZkmj4-rbbM2WaYGvC-40" value="" style="rounded=0;whiteSpace=wrap;html=1;fillColor=#ffe6cc;strokeColor=#d79b00;" vertex="1" parent="1">
          <mxGeometry x="60" y="415" width="40" height="30" as="geometry" />
        </mxCell>
        <mxCell id="ddxZkmj4-rbbM2WaYGvC-41" value="" style="rounded=0;whiteSpace=wrap;html=1;fillColor=#ffe6cc;strokeColor=#d79b00;" vertex="1" parent="1">
          <mxGeometry x="60" y="355" width="40" height="30" as="geometry" />
        </mxCell>
        <mxCell id="ddxZkmj4-rbbM2WaYGvC-42" value="" style="rounded=0;whiteSpace=wrap;html=1;fillColor=#f8cecc;strokeColor=#b85450;" vertex="1" parent="1">
          <mxGeometry x="60" y="475" width="40" height="30" as="geometry" />
        </mxCell>
        <mxCell id="ddxZkmj4-rbbM2WaYGvC-43" value="" style="rounded=0;whiteSpace=wrap;html=1;fillColor=#f8cecc;strokeColor=#b85450;" vertex="1" parent="1">
          <mxGeometry x="60" y="530" width="40" height="30" as="geometry" />
        </mxCell>
        <mxCell id="ddxZkmj4-rbbM2WaYGvC-45" value=".jsx, .css" style="rounded=0;whiteSpace=wrap;html=1;" vertex="1" parent="1">
          <mxGeometry x="910" y="295" width="120" height="60" as="geometry" />
        </mxCell>
        <mxCell id="ddxZkmj4-rbbM2WaYGvC-46" value="" style="rounded=0;whiteSpace=wrap;html=1;" vertex="1" parent="1">
          <mxGeometry x="880" y="235" width="120" height="60" as="geometry" />
        </mxCell>
      </root>
    </mxGraphModel>
  </diagram>
</mxfile>
